<?xml version="1.0" encoding="UTF-8" standalone="no"?><!-- Generator: Gravit.io --><svg xmlns="http://www.w3.org/2000/svg" xmlns:xlink="http://www.w3.org/1999/xlink" style="isolation:isolate" viewBox="0 0 40 40" width="40pt" height="40pt"><defs><clipPath id="_clipPath_zsQ7kI1HFwixf49qL5ojsAQEYauECVEF"><rect width="40" height="40"/></clipPath></defs><g clip-path="url(#_clipPath_zsQ7kI1HFwixf49qL5ojsAQEYauECVEF)"><clipPath id="_clipPath_P0DlLj2BQUKS8dsOV78CQxdoI7BKverE"><rect x="3" y="1.098" width="34" height="37.804" transform="matrix(1,0,0,1,0,0)" fill="rgb(255,255,255)"/></clipPath><g clip-path="url(#_clipPath_P0DlLj2BQUKS8dsOV78CQxdoI7BKverE)"><g><path d=" M 17.522 38.24 C 18.276 38.675 19.13 38.904 20 38.903 C 20.87 38.904 21.724 38.675 22.478 38.24 L 34.522 31.271 C 35.274 30.834 35.899 30.207 36.334 29.452 C 36.769 28.697 36.999 27.842 37 26.97 L 37 13.033 C 36.999 12.161 36.769 11.305 36.334 10.55 C 35.899 9.796 35.274 9.168 34.522 8.731 L 32.219 7.399 L 32.248 7.348 C 31.51 6.922 30.692 6.652 29.846 6.558 C 28.999 6.463 28.142 6.545 27.328 6.798 C 26.515 7.052 25.763 7.471 25.119 8.03 C 24.475 8.589 23.953 9.276 23.587 10.047 L 14.593 28.976 C 14.361 29.463 14.032 29.897 13.625 30.251 C 13.218 30.604 12.742 30.869 12.228 31.029 C 11.714 31.189 11.172 31.241 10.637 31.181 C 10.102 31.122 9.585 30.951 9.119 30.682 L 8.888 30.548 L 8.859 30.599 L 6.614 29.3 C 6.206 29.063 5.868 28.723 5.632 28.314 C 5.397 27.906 5.273 27.442 5.272 26.97 L 5.272 13.033 C 5.273 12.561 5.397 12.097 5.632 11.688 C 5.868 11.279 6.206 10.94 6.614 10.703 L 18.658 3.734 C 19.066 3.498 19.529 3.375 20 3.375 C 20.471 3.375 20.934 3.498 21.342 3.734 L 24.709 5.682 C 25.326 5.289 25.994 4.979 26.696 4.76 C 26.914 4.693 27.133 4.634 27.355 4.584 L 22.478 1.763 C 21.724 1.328 20.87 1.099 20 1.099 C 19.13 1.099 18.276 1.328 17.522 1.763 L 5.478 8.731 C 4.726 9.168 4.101 9.795 3.666 10.55 C 3.231 11.305 3.001 12.161 3 13.033 L 3 26.97 C 3.001 27.842 3.231 28.697 3.666 29.452 C 4.101 30.207 4.726 30.834 5.478 31.271 L 7.722 32.57 L 8.486 31.245 L 7.751 32.519 L 7.983 32.653 C 8.923 33.196 9.989 33.481 11.074 33.481 C 12.24 33.481 13.382 33.15 14.368 32.526 C 15.354 31.902 16.143 31.01 16.644 29.955 L 25.638 11.026 C 25.87 10.538 26.199 10.104 26.606 9.751 C 27.013 9.398 27.489 9.133 28.003 8.972 C 28.517 8.812 29.059 8.76 29.594 8.82 C 30.129 8.88 30.646 9.05 31.112 9.32 L 31.083 9.37 L 33.386 10.703 C 33.794 10.94 34.132 11.279 34.367 11.688 C 34.603 12.097 34.727 12.561 34.728 13.033 L 34.728 26.97 C 34.727 27.442 34.603 27.906 34.367 28.314 C 34.132 28.723 33.794 29.063 33.386 29.3 L 21.342 36.268 C 20.934 36.504 20.471 36.628 20 36.628 C 19.529 36.628 19.066 36.504 18.658 36.268 L 15.411 34.39 C 14.575 34.903 13.659 35.262 12.706 35.453 L 17.522 38.24 Z  M 16.944 8.078 L 21.084 10.349 L 20.106 12.408 L 16.461 10.408 L 15.256 13.253 L 18.783 15.193 L 17.804 17.252 L 13.607 14.943 C 13.249 14.747 12.983 14.418 12.866 14.027 C 12.757 13.663 12.78 13.272 12.929 12.922 L 14.625 8.917 C 14.713 8.711 14.84 8.525 14.999 8.367 C 15.16 8.209 15.351 8.084 15.561 8 C 15.776 7.913 16.008 7.873 16.24 7.882 C 16.487 7.891 16.728 7.958 16.944 8.078 Z  M 25.844 15.556 L 26.823 13.497 L 30.446 15.485 C 30.803 15.68 31.069 16.008 31.187 16.398 C 31.296 16.764 31.274 17.156 31.125 17.507 L 29.429 21.511 C 29.3 21.817 29.084 22.079 28.808 22.263 C 28.532 22.447 28.208 22.546 27.876 22.547 C 27.855 22.547 27.835 22.547 27.814 22.546 C 27.567 22.536 27.326 22.469 27.109 22.351 L 23.573 20.409 L 23.572 20.41 L 23.57 20.411 L 23.57 20.411 C 23.569 20.412 23.567 20.414 23.565 20.415 C 23.565 20.416 23.564 20.416 23.564 20.417 C 23.555 20.425 23.547 20.436 23.542 20.447 L 23.524 20.439 L 24.523 18.336 C 24.548 18.349 24.573 18.361 24.597 18.375 L 27.593 20.02 L 28.797 17.176 L 25.844 15.556 Z  M 22.376 22.855 L 22.374 22.86 C 22.407 22.889 22.432 22.926 22.446 22.969 L 22.301 23.013 L 21.398 24.913 L 24.743 26.75 L 23.539 29.594 L 20.077 27.695 L 19.098 29.754 L 23.053 31.923 C 23.27 32.043 23.512 32.11 23.76 32.121 C 23.781 32.121 23.801 32.122 23.822 32.122 C 24.034 32.121 24.243 32.081 24.44 32.002 C 24.648 31.919 24.838 31.795 24.999 31.637 C 25.159 31.48 25.287 31.293 25.375 31.086 L 27.071 27.081 C 27.22 26.73 27.242 26.338 27.133 25.973 C 27.015 25.583 26.749 25.255 26.392 25.06 L 22.376 22.855 Z  M 12.889 17.652 L 16.624 19.736 L 15.645 21.796 L 12.405 19.987 L 11.203 22.827 L 14.338 24.547 L 13.36 26.606 L 9.554 24.518 C 9.197 24.323 8.931 23.995 8.813 23.604 C 8.704 23.239 8.726 22.847 8.875 22.496 L 10.57 18.493 C 10.658 18.287 10.784 18.101 10.943 17.944 C 11.104 17.786 11.296 17.66 11.505 17.575 C 11.723 17.487 11.956 17.447 12.19 17.457 C 12.435 17.467 12.675 17.533 12.889 17.652 Z " fill-rule="evenodd" fill="#fff"/></g></g></g></svg>